<svg width="20" height="20" viewBox="0 0 20 20" fill="none" xmlns="http://www.w3.org/2000/svg">
<path d="M2.75933 15.3281C2.81047 15.1399 2.69746 14.8782 2.58961 14.6896C2.55602 14.6334 2.5196 14.5789 2.48047 14.5263C1.55546 13.1235 1.06244 11.4801 1.0625 9.79977C1.04746 4.97652 5.04699 1.0625 9.99269 1.0625C14.3059 1.0625 17.9062 4.05055 18.7476 8.01699C18.8736 8.60506 18.9373 9.20479 18.9375 9.80621C18.9375 14.6363 15.0922 18.6118 10.1465 18.6118C9.36019 18.6118 8.29886 18.4141 7.72007 18.2521C7.14129 18.0902 6.56336 17.8753 6.41425 17.8177C6.26176 17.7591 6.09981 17.729 5.93644 17.7288C5.758 17.7281 5.58127 17.7636 5.41695 17.8332L2.50238 18.8851C2.43853 18.9126 2.37087 18.9303 2.30172 18.9375C2.24714 18.9373 2.19315 18.9263 2.14285 18.9052C2.09256 18.884 2.04697 18.853 2.00872 18.8141C1.97048 18.7752 1.94033 18.729 1.92004 18.6784C1.89975 18.6277 1.88971 18.5736 1.8905 18.519C1.89409 18.4711 1.90273 18.4237 1.91629 18.3776L2.75933 15.3281Z" stroke="black" stroke-width="1.38" stroke-miterlimit="10" stroke-linecap="round"/>
</svg>
